<svg width="24" height="26" viewBox="0 0 24 26" fill="none" xmlns="http://www.w3.org/2000/svg">
<path fill-rule="evenodd" clip-rule="evenodd" d="M11.9997 10.3333C13.3258 10.3333 14.5975 9.80653 15.5352 8.86885C16.4729 7.93117 16.9997 6.6594 16.9997 5.33331C16.9997 4.00723 16.4729 2.73546 15.5352 1.79778C14.5975 0.860097 13.3258 0.333313 11.9997 0.333313C10.6736 0.333313 9.40182 0.860097 8.46414 1.79778C7.52646 2.73546 6.99967 4.00723 6.99967 5.33331C6.99967 6.6594 7.52646 7.93117 8.46414 8.86885C9.40182 9.80653 10.6736 10.3333 11.9997 10.3333ZM0.333008 25.3333C0.333008 23.8012 0.634775 22.2841 1.22108 20.8687C1.80738 19.4532 2.66674 18.1671 3.7501 17.0837C4.83345 16.0004 6.11957 15.141 7.53503 14.5547C8.9505 13.9684 10.4676 13.6666 11.9997 13.6666C13.5318 13.6666 15.0488 13.9684 16.4643 14.5547C17.8798 15.141 19.1659 16.0004 20.2493 17.0837C21.3326 18.1671 22.192 19.4532 22.7783 20.8687C23.3646 22.2841 23.6663 23.8012 23.6663 25.3333H0.333008Z" fill="#5B6871"/>
</svg>
